<svg width="133" height="153" viewBox="0 0 133 153" fill="none" xmlns="http://www.w3.org/2000/svg">
<path d="M51.7451 153C33.0183 153 14.9955 146.334 0 133.718L11.6866 117.59C25.4149 129.202 42.5929 134.292 59.9117 131.998C77.2304 129.704 92.7187 120.314 103.42 105.477C111.727 94.0797 115.388 79.8155 113.698 65.4797C112.009 51.1438 105.321 38.2416 94.69 29.3533C86.5938 22.5438 76.5968 19.5333 66.3886 20.8952C56.1804 22.2571 47.0986 27.7764 40.8328 36.4496C36.1159 42.9724 34.0039 51.1438 34.9191 59.3153C35.8343 67.5584 39.7064 74.8696 45.761 79.9589C50.1962 83.6862 55.758 85.3348 61.3901 84.618C67.0222 83.9012 72.0207 80.819 75.4704 76.0165L90.4659 88.632C83.8481 97.7353 74.3439 103.541 63.7133 104.903C53.0827 106.265 42.5225 103.183 34.0743 96.0867C24.0069 87.6285 17.6004 75.4431 16.0515 61.7523C14.5027 48.1333 17.9524 34.5859 25.8374 23.7624C35.2711 10.7167 48.8586 2.47363 64.0653 0.466608C79.272 -1.54041 94.338 2.97538 106.377 13.0822C136.508 38.4566 141.859 85.4782 118.345 117.949C104.476 137.087 84.4818 149.201 62.1645 152.212C58.6444 152.642 55.1947 152.928 51.7451 152.928V153Z" fill="#0C0C0C"/>
</svg>
