<svg width="393" height="618" viewBox="0 0 393 618" fill="none" xmlns="http://www.w3.org/2000/svg">
<path d="M135.871 618C59.5557 618 -13.8905 591.074 -75 540.117L-27.3747 474.973C28.5706 521.877 98.5741 542.433 169.151 533.168C239.728 523.903 302.846 485.975 346.455 426.043C380.309 380.008 395.228 322.392 388.342 264.486C381.457 206.581 354.201 154.466 310.879 118.564C277.886 91.0593 237.146 78.8991 195.546 84.4002C153.946 89.9012 116.936 112.195 91.4015 147.228C72.1793 173.575 63.5723 206.581 67.302 239.587C71.0317 272.883 86.8111 302.415 111.484 322.971C129.559 338.027 152.224 344.686 175.176 341.79C198.128 338.895 218.498 326.445 232.556 307.047L293.665 358.004C266.697 394.774 227.966 418.226 184.644 423.727C141.322 429.228 98.2871 416.778 63.8592 388.115C22.8326 353.951 -3.27524 304.731 -9.58702 249.431C-15.8988 194.421 -1.84065 139.7 30.2921 95.9813C68.7366 43.2872 124.108 9.99151 186.078 1.88473C248.048 -6.22205 309.445 12.0182 358.505 52.8416C481.298 155.334 503.102 345.265 407.278 476.421C350.758 553.725 269.279 602.655 178.332 614.815C163.987 616.552 149.929 617.71 135.871 617.71V618Z" fill="#F2F2F2"/>
</svg>
