<svg width="228" height="71" viewBox="0 0 228 71" fill="none" xmlns="http://www.w3.org/2000/svg">
<path d="M137.457 71C130.414 71 123.637 68.5121 117.998 63.8037L122.392 57.7845C127.555 62.1183 134.015 64.0177 140.528 63.1617C147.04 62.3056 152.865 58.8011 156.889 53.2634C160.013 49.0098 161.39 43.6862 160.754 38.3357C160.119 32.9853 157.604 28.1699 153.606 24.8527C150.562 22.3112 146.802 21.1877 142.963 21.6959C139.124 22.2042 135.709 24.2641 133.353 27.5011C131.579 29.9356 130.785 32.9853 131.129 36.0351C131.473 39.1115 132.929 41.8403 135.206 43.7397C136.874 45.1308 138.966 45.7461 141.084 45.4785C143.202 45.211 145.081 44.0607 146.379 42.2683L152.018 46.9767C149.529 50.3742 145.955 52.5411 141.957 53.0494C137.96 53.5577 133.988 52.4073 130.811 49.7589C127.026 46.6021 124.616 42.0543 124.034 36.9446C123.451 31.8617 124.749 26.8056 127.714 22.766C131.262 17.8972 136.371 14.8207 142.09 14.0716C147.808 13.3226 153.474 15.0079 158.001 18.78C169.332 28.2502 171.344 45.7996 162.502 57.9183C157.286 65.0611 149.767 69.5822 141.375 70.7057C140.051 70.8663 138.754 70.9733 137.457 70.9733V71Z" fill="#0C0C0C"/>
<path d="M8.18068 8.48041V53.5309H0V0H13.3697L26.6071 43.7129L39.8179 0H53.1876V53.5309H45.007V8.48041L30.896 53.5309H22.2652L8.18068 8.48041Z" fill="#0C0C0C"/>
<path d="M71.6935 8.48041H64.0952V0H71.6935V8.48041ZM71.6935 53.5309H64.0952V13.8041H71.6935V53.5309Z" fill="#0C0C0C"/>
<path d="M101.848 13.0817C111.353 13.0817 115.006 19.2882 115.006 28.5177V53.5576H107.408V30.5776C107.408 24.8259 106.455 19.5022 99.3066 19.5022C92.7409 19.5022 89.511 24.2909 89.511 32.2095V53.5576H81.9127V13.804H89.511V19.5557C91.7878 15.6499 95.7325 13.055 101.875 13.055L101.848 13.0817Z" fill="#0C0C0C"/>
<path d="M175.051 53.5309V0H182.649V53.5309H175.051Z" fill="#0C0C0C"/>
<path d="M227.444 41.867C225.617 48.448 219.766 54.494 209.759 54.494C197.051 54.494 190.168 45.104 190.168 33.6006C190.168 21.2679 198.348 13.0818 209.521 13.0818C221.646 13.0818 228.741 23.1138 227.947 36.0351H197.978C198.719 43.3384 203.326 47.913 209.441 47.913C214.922 47.913 218.125 45.6123 219.74 41.867H227.418H227.444ZM220.058 29.9891C219.846 24.0769 215.742 19.3418 209.468 19.3418C203.537 19.3418 199.169 22.445 198.137 29.9891H220.058Z" fill="#0C0C0C"/>
</svg>
