<svg width="18" height="18" viewBox="0 0 18 18" fill="none" xmlns="http://www.w3.org/2000/svg">
<path d="M9 0C4.02789 0 0 4.02789 0 9C0 13.9721 4.02789 18 9 18C13.9721 18 18 13.9721 18 9C18 4.02789 13.9661 0 9 0ZM9.56773 15.0837H7.50598V13.0219H9.56773V15.0837ZM10.8227 9.14343C9.8008 9.78884 9.38845 10.0996 9.38845 11.0916V11.6056H7.65538V11.0438C7.65538 9.59163 8.31275 8.93426 9.60359 8.12151C10.512 7.55976 11.2052 6.93227 11.2052 5.91036C11.2052 4.88845 10.3147 4.32669 9.14343 4.32669C7.4761 4.32669 6.8008 5.41434 6.73506 6.58566H5.01992C5.03785 4.34462 6.77092 2.90438 9.17928 2.90438C11.0916 2.90438 12.992 3.81275 12.992 5.82669C12.992 7.3745 11.9044 8.46813 10.8287 9.14343H10.8227Z" fill="#0C0C0C"/>
</svg>
